<?xml version="1.0" ?><!DOCTYPE svg  PUBLIC '-//W3C//DTD SVG 1.1//EN'  'http://www.w3.org/Graphics/SVG/1.1/DTD/svg11.dtd'><svg enable-background="new 0 0 200 200" height="200px" id="Layer_1" version="1.1" viewBox="0 0 200 200" width="200px" xml:space="preserve" xmlns="http://www.w3.org/2000/svg" xmlns:xlink="http://www.w3.org/1999/xlink"><g><g><path d="M197.321,112.5h-7.143V37.946H9.821V112.5H2.679v-75c0-1.786,0.695-3.467,1.958-4.732    c1.271-1.269,2.952-1.964,4.738-1.964h181.25c1.786,0,3.467,0.696,4.732,1.958c1.268,1.271,1.964,2.952,1.964,4.738V112.5z" fill="#242D3C"/><g><g><rect fill="#43D3E8" height="12.5" width="12.5" x="18.75" y="65.625"/><rect fill="#43D3E8" height="12.5" width="12.5" x="37.5" y="65.625"/><rect fill="#43D3E8" height="12.5" width="12.5" x="56.25" y="65.625"/><rect fill="#43D3E8" height="12.5" width="12.5" x="75" y="65.625"/><rect fill="#43D3E8" height="12.5" width="12.5" x="93.75" y="65.625"/><rect fill="#43D3E8" height="12.5" width="12.5" x="112.5" y="65.625"/><rect fill="#43D3E8" height="12.5" width="12.5" x="131.25" y="65.625"/><rect fill="#43D3E8" height="12.5" width="12.5" x="150" y="65.625"/><rect fill="#43D3E8" height="12.5" width="12.5" x="168.75" y="65.625"/></g><g><rect fill="#43D3E8" height="12.5" width="12.5" x="18.75" y="84.375"/><path d="M40.625,90.625c1.599,0,3.198,0.611,4.419,1.831c1.22,1.222,1.831,2.821,1.831,4.419v-6.25      c0-1.599,0.611-3.198,1.831-4.419c0.393-0.394,0.835-0.699,1.294-0.966v-0.865H37.5v7.115      C38.465,90.929,39.541,90.625,40.625,90.625z" fill="#43D3E8"/><path d="M59.375,84.375v6.25v6.25c0-1.599,0.611-3.198,1.831-4.419c1.222-1.22,2.821-1.831,4.419-1.831      s3.198,0.611,4.419,1.831c1.22,1.222,1.831,2.821,1.831,4.419h56.25v-12.5H59.375z" fill="#F96232"/><rect fill="#43D3E8" height="12.5" width="12.5" x="150" y="84.375"/><rect fill="#43D3E8" height="12.5" width="12.5" x="168.75" y="84.375"/></g><g><rect fill="#F96232" height="12.5" width="12.5" x="28.125" y="46.875"/><rect fill="#43D3E8" height="12.5" width="12.5" x="46.875" y="46.875"/><rect fill="#43D3E8" height="12.5" width="12.5" x="65.625" y="46.875"/><rect fill="#43D3E8" height="12.5" width="12.5" x="84.375" y="46.875"/><rect fill="#43D3E8" height="12.5" width="12.5" x="103.125" y="46.875"/><rect fill="#43D3E8" height="12.5" width="12.5" x="121.875" y="46.875"/><rect fill="#43D3E8" height="12.5" width="12.5" x="140.625" y="46.875"/><rect fill="#43D3E8" height="12.5" width="12.5" x="159.375" y="46.875"/></g></g><g><rect fill="#242D3C" height="7.143" width="7.144" x="82.143" y="105.804"/><rect fill="#242D3C" height="7.143" width="7.14" x="96.43" y="105.804"/><rect fill="#242D3C" height="7.143" width="7.145" x="110.713" y="105.804"/></g></g><g><g><g><path d="M131.696,137.5h-7.143V90.625c0-2.62,1.021-5.085,2.874-6.942c1.862-1.86,4.327-2.879,6.947-2.879      s5.085,1.02,6.942,2.874c1.857,1.863,2.879,4.328,2.879,6.948v31.25h-7.143v-31.25c0-0.714-0.279-1.388-0.787-1.897      c-1.007-1.004-2.771-1.01-3.789,0.006c-0.502,0.503-0.781,1.177-0.781,1.892V137.5z" fill="#242D3C"/><path d="M156.696,121.875h-7.143v-11.071c0-0.715-0.279-1.389-0.787-1.897c-1.007-1.005-2.771-1.01-3.789,0.006      c-0.502,0.503-0.781,1.177-0.781,1.892v11.071h-7.143v-11.071c0-2.62,1.02-5.085,2.874-6.942      c1.862-1.859,4.327-2.879,6.947-2.879s5.085,1.02,6.942,2.875c1.859,1.862,2.879,4.327,2.879,6.947V121.875z" fill="#242D3C"/><path d="M169.196,121.875h-7.143v-11.071c0-0.715-0.279-1.389-0.787-1.897c-1.007-1.005-2.771-1.01-3.789,0.006      c-0.502,0.503-0.781,1.177-0.781,1.892v11.071h-7.143v-11.071c0-2.62,1.02-5.085,2.874-6.942      c1.862-1.859,4.327-2.879,6.947-2.879s5.085,1.02,6.942,2.875c1.859,1.862,2.879,4.327,2.879,6.947V121.875z" fill="#242D3C"/><path d="M172.321,178.125h-7.143v-10.022l9.375-25v-25.156c0-0.714-0.279-1.388-0.787-1.897      c-1.007-1.004-2.771-1.01-3.789,0.006c-0.502,0.504-0.781,1.178-0.781,1.892v3.929h-7.143v-3.929c0-2.62,1.02-5.085,2.874-6.941      c1.862-1.86,4.327-2.88,6.947-2.88s5.085,1.02,6.942,2.874c1.859,1.862,2.879,4.327,2.879,6.947v26.451l-9.375,25V178.125z" fill="#242D3C"/><path d="M134.821,178.125h-7.143v-7.938c-3.684-3.934-15.625-17.608-15.625-29.492v-12.569      c0-2.62,1.02-5.085,2.874-6.942c1.862-1.857,4.327-2.879,6.947-2.879s5.085,1.021,6.942,2.874      c1.859,1.862,2.879,4.327,2.879,6.947h-7.143c0-0.714-0.279-1.388-0.787-1.897c-1.007-1.004-2.771-1.01-3.789,0.006      c-0.502,0.504-0.781,1.178-0.781,1.892v12.569c0,8.958,10.524,21.468,14.58,25.532l1.044,1.045L134.821,178.125z" fill="#242D3C"/></g><g><path d="M170.96,179.04c-0.611-0.609-1.409-0.915-2.21-0.915h-37.5c-0.801,0-1.599,0.306-2.21,0.915      c-0.609,0.611-0.915,1.409-0.915,2.21V200h43.75v-18.75C171.875,180.449,171.569,179.651,170.96,179.04z" fill="#F96232"/><path d="M175.446,200h-7.143v-18.304h-36.607V200h-7.143v-18.75c0-1.786,0.696-3.467,1.959-4.732      c1.271-1.268,2.951-1.964,4.737-1.964h37.5c1.786,0,3.467,0.696,4.732,1.959c1.268,1.271,1.964,2.951,1.964,4.737V200z" fill="#242D3C"/></g></g><g><g><path d="M75.446,137.5h-7.143V96.875c0-0.714-0.279-1.388-0.787-1.897c-1.007-1.004-2.771-1.01-3.789,0.006      c-0.502,0.503-0.781,1.177-0.781,1.892v25h-7.143v-25c0-2.62,1.021-5.085,2.874-6.942c1.863-1.86,4.328-2.879,6.948-2.879      s5.085,1.02,6.942,2.874c1.858,1.863,2.879,4.328,2.879,6.948V137.5z" fill="#242D3C"/><path d="M62.946,121.875h-7.143v-31.25c0-0.714-0.279-1.388-0.787-1.897c-1.007-1.006-2.772-1.007-3.786,0.004      c-0.505,0.505-0.784,1.179-0.784,1.893v31.25h-7.143v-31.25c0-2.622,1.021-5.086,2.876-6.943      c1.858-1.857,4.323-2.878,6.945-2.878c2.62,0,5.085,1.02,6.942,2.874c1.858,1.863,2.879,4.328,2.879,6.948V121.875z" fill="#242D3C"/><path d="M50.446,121.875h-7.143v-25c0-0.714-0.279-1.388-0.787-1.896c-1.01-1.007-2.771-1.01-3.786,0.003      c-0.505,0.505-0.784,1.179-0.784,1.893v25h-7.143v-25c0-2.622,1.021-5.086,2.876-6.943c1.858-1.857,4.323-2.878,6.945-2.878      s5.086,1.021,6.942,2.875c1.858,1.86,2.879,4.325,2.879,6.946V121.875z" fill="#242D3C"/><path d="M34.821,178.125h-7.143v-8.728l-9.375-25v-41.272c0-2.622,1.021-5.086,2.876-6.943      c1.858-1.857,4.323-2.878,6.945-2.878s5.086,1.021,6.942,2.875c1.858,1.86,2.879,4.325,2.879,6.946v18.75h-7.143v-18.75      c0-0.714-0.279-1.388-0.787-1.896c-1.01-1.008-2.771-1.01-3.786,0.002c-0.505,0.506-0.784,1.18-0.784,1.894v39.978l9.375,25      V178.125z" fill="#242D3C"/><path d="M72.321,178.125h-7.143v-10.853l1.045-1.046c4.055-4.064,14.58-16.574,14.58-25.532v-12.569      c0-0.714-0.279-1.388-0.787-1.897c-1.007-1.004-2.771-1.01-3.789,0.006c-0.502,0.504-0.781,1.178-0.781,1.892h-7.143      c0-2.62,1.021-5.085,2.874-6.942c1.863-1.857,4.328-2.879,6.948-2.879s5.085,1.021,6.942,2.874      c1.858,1.862,2.879,4.327,2.879,6.947v12.569c0,11.884-11.942,25.559-15.625,29.492V178.125z" fill="#242D3C"/></g><g><path d="M70.96,179.04c-0.611-0.609-1.409-0.915-2.21-0.915h-37.5c-0.799,0-1.599,0.306-2.21,0.915      c-0.609,0.611-0.915,1.409-0.915,2.21V200h43.75v-18.75C71.875,180.449,71.569,179.651,70.96,179.04z" fill="#F96232"/><path d="M75.446,200h-7.143v-18.304H31.696V200h-7.143v-18.75c0-1.786,0.695-3.467,1.958-4.732      c1.271-1.268,2.952-1.964,4.738-1.964h37.5c1.786,0,3.467,0.696,4.732,1.959c1.27,1.271,1.964,2.951,1.964,4.737V200z" fill="#242D3C"/></g></g></g><path d="M103.571,34.375h-7.143v-6.25c0-0.714-0.279-1.388-0.787-1.897c-0.503-0.502-1.177-0.781-1.892-0.781H75   c-2.62,0-5.085-1.02-6.942-2.874c-1.858-1.863-2.879-4.328-2.879-6.948s1.021-5.085,2.874-6.942C69.915,6.823,72.38,5.804,75,5.804   h37.5c0.714,0,1.388-0.279,1.897-0.787c0.502-0.503,0.781-1.177,0.781-1.892V0h7.143v3.125c0,2.62-1.021,5.085-2.874,6.942   c-1.862,1.86-4.327,2.879-6.947,2.879H75c-0.714,0-1.388,0.279-1.897,0.787c-0.502,0.503-0.781,1.177-0.781,1.892   s0.279,1.388,0.787,1.897c0.503,0.502,1.177,0.781,1.892,0.781h18.75c2.62,0,5.085,1.02,6.942,2.874   c1.858,1.863,2.879,4.328,2.879,6.948V34.375z" fill="#242D3C"/></g></svg>